<svg xmlns="http://www.w3.org/2000/svg" shape-rendering="geometricPrecision" text-rendering="geometricPrecision" image-rendering="optimizeQuality" fill-rule="evenodd" clip-rule="evenodd" viewBox="0 0 419 511.68"><path d="M93 39.4h46.12C141.83 17.18 159.77 0 181.52 0c21.62 0 39.45 16.95 42.34 38.94l46.76.46c2.6 0 4.7 2.1 4.7 4.71v51.85c0 2.6-2.1 4.7-4.7 4.7H93.05c-2.56 0-4.71-2.1-4.71-4.7V44.11C88.3 41.5 90.4 39.4 93 39.4zm221.98 264.23c57.47 0 104.02 46.58 104.02 104.02 0 57.47-46.58 104.03-104.02 104.03-57.48 0-104.03-46.58-104.03-104.03 0-57.48 46.59-104.02 104.03-104.02zm2.52 54.36 13.31 31.12 33.71 3.02c1.5.11 2.59 1.43 2.47 2.93-.08.74-.39 1.36-.93 1.82l-25.52 22.27 7.55 33.01c.34 1.47-.58 2.91-2.05 3.26-.74.15-1.52 0-2.09-.39l-29-17.32-29.07 17.4c-1.27.76-2.94.34-3.71-.94a2.61 2.61 0 0 1-.31-2.01l7.53-33.01-25.51-22.27c-1.12-.96-1.24-2.71-.27-3.83.54-.58 1.24-.85 1.94-.89l33.63-3.01 13.3-31.16c.58-1.4 2.16-2.01 3.56-1.44.69.28 1.19.82 1.46 1.44zM41.72 59.28h23.93v24.38H41.72c-4.76 0-9.11 1.95-12.24 5.08-3.14 3.14-5.1 7.48-5.1 12.25v315.53c0 4.76 1.96 9.09 5.1 12.24 3.12 3.17 7.48 5.12 12.24 5.12h142.62c1.68 8.44 4.18 16.6 7.37 24.38H41.72c-11.4 0-21.85-4.72-29.44-12.3C4.72 438.44 0 428 0 416.52V100.99c0-11.48 4.7-21.92 12.25-29.47 7.55-7.55 18-12.24 29.47-12.24zm297.56 217.36V100.99c0-4.52-1.76-8.67-4.61-11.75l-.52-.48c-3.14-3.14-7.47-5.1-12.23-5.1H298V59.28h23.92c11.47 0 21.92 4.71 29.46 12.26l.72.78c7.15 7.51 11.55 17.64 11.55 28.67V283.6c-7.79-3.06-15.94-5.41-24.37-6.96zm-206.75-8.06c-7.13 0-12.92-5.8-12.92-12.93s5.79-12.92 12.92-12.92h142.82c7.13 0 12.93 5.79 12.93 12.92s-5.8 12.93-12.93 12.93H132.53zM89.5 241.21c7.97 0 14.43 6.47 14.43 14.45 0 7.98-6.46 14.44-14.43 14.44-7.98 0-14.44-6.46-14.44-14.44 0-7.98 6.46-14.45 14.44-14.45zm0 78.63c7.97 0 14.43 6.46 14.43 14.44 0 7.97-6.46 14.44-14.43 14.44-7.98 0-14.44-6.47-14.44-14.44 0-7.98 6.46-14.44 14.44-14.44zm43.04 27.36c-7.13 0-12.93-5.8-12.93-12.93s5.8-12.92 12.93-12.92h80.96a133.35 133.35 0 0 0-17.27 25.85h-63.69zM89.5 162.61c7.97 0 14.43 6.46 14.43 14.44 0 7.98-6.46 14.43-14.43 14.43-7.98 0-14.44-6.45-14.44-14.43 0-7.98 6.46-14.44 14.44-14.44zm43.03 27.35c-7.13 0-12.92-5.79-12.92-12.92s5.79-12.93 12.92-12.93h142.82c7.13 0 12.93 5.8 12.93 12.93s-5.8 12.92-12.93 12.92H132.53zm48.5-169.8c12.3 0 22.26 9.97 22.26 22.27 0 12.29-9.96 22.26-22.26 22.26s-22.27-9.97-22.27-22.26c0-12.3 9.97-22.27 22.27-22.27z"/></svg>